name Walk9.mot
datacolumns 19
datarows 30
range 1.15000000 1.17900000
endheader

                time	   L_ground_force_vx	   L_ground_force_vy	   L_ground_force_vz	   L_ground_force_px	   L_ground_force_py	   L_ground_force_pz	   R_ground_force_vx	   R_ground_force_vy	   R_ground_force_vz	   R_ground_force_px	   R_ground_force_py	   R_ground_force_pz	   L_ground_torque_x	   L_ground_torque_y	   L_ground_torque_z	   R_ground_torque_x	   R_ground_torque_y	   R_ground_torque_z	
          1.15000000	        -10.73570706	        136.41866550	        -19.26135265	         -0.10606837	          0.00000000	          0.01228333	          0.00000000	         -0.00000000	         -0.00000000	         -0.00000000	          0.00000000	         -0.00000000	          0.00000000	          0.37229335	          0.00000000	          0.00000000	         -0.00000000	          0.00000000	
          1.15100000	        -11.99774780	        146.85819190	        -20.63558652	         -0.11217307	          0.00000000	          0.01300292	          0.00000000	         -0.00000000	         -0.00000000	         -0.00000000	          0.00000000	         -0.00000000	          0.00000000	          0.39689239	          0.00000000	          0.00000000	         -0.00000000	          0.00000000	
          1.15200000	        -13.32751411	        157.66130066	        -22.05229803	         -0.11838179	          0.00000000	          0.01373567	          0.00000000	         -0.00000000	         -0.00000000	         -0.00000000	          0.00000000	         -0.00000000	          0.00000000	          0.42213816	          0.00000000	          0.00000000	         -0.00000000	          0.00000000	
          1.15300000	        -14.72580759	        168.81716182	        -23.50958351	         -0.12467854	          0.00000000	          0.01447979	          0.00000000	         -0.00000000	         -0.00000000	         -0.00000000	          0.00000000	         -0.00000000	          0.00000000	          0.44798651	          0.00000000	          0.00000000	         -0.00000000	          0.00000000	
          1.15400000	        -16.19322128	        180.31248221	        -25.00519485	         -0.13104551	          0.00000000	          0.01523326	          0.00000000	         -0.00000000	         -0.00000000	         -0.00000000	          0.00000000	         -0.00000000	          0.00000000	          0.47438667	          0.00000000	          0.00000000	         -0.00000000	          0.00000000	
          1.15500000	        -17.73011792	        192.13133147	        -26.53651674	         -0.13746292	          0.00000000	          0.01599383	          0.00000000	         -0.00000000	         -0.00000000	         -0.00000000	          0.00000000	         -0.00000000	          0.00000000	          0.50128089	          0.00000000	          0.00000000	         -0.00000000	          0.00000000	
          1.15600000	        -19.33660695	        204.25496276	        -28.10054337	         -0.14390897	          0.00000000	          0.01675902	          0.00000000	         -0.00000000	         -0.00000000	         -0.00000000	          0.00000000	         -0.00000000	          0.00000000	          0.52860401	          0.00000000	          0.00000000	         -0.00000000	          0.00000000	
          1.15700000	        -21.01252411	        216.66164070	        -29.69385401	         -0.15035997	          0.00000000	          0.01752614	          0.00000000	         -0.00000000	         -0.00000000	         -0.00000000	          0.00000000	          0.00000000	          0.00000000	          0.55628312	          0.00000000	          0.00000000	         -0.00000000	          0.00000000	
          1.15800000	        -22.75742203	        229.32651166	        -31.31258638	         -0.15679145	          0.00000000	          0.01829239	          0.00000000	         -0.00000000	         -0.00000000	          0.00000000	          0.00000000	          0.00000000	          0.00000000	          0.58423738	          0.00000000	          0.00000000	         -0.00000000	          0.00000000	
          1.15900000	        -24.57057346	        242.22154047	        -32.95240785	         -0.16317977	          0.00000000	          0.01905503	          0.00000000	         -0.00000000	         -0.00000000	          0.00000000	          0.00000000	          0.00000000	          0.00000000	          0.61237805	          0.00000000	          0.00000000	         -0.00000000	          0.00000000	
          1.16000000	        -26.45097705	        255.31550901	        -34.60848669	         -0.16950317	          0.00000000	          0.01981152	          0.00000000	         -0.00000000	         -0.00000000	          0.00000000	          0.00000000	          0.00000000	          0.00000000	          0.64060844	          0.00000000	          0.00000000	         -0.00000000	          0.00000000	
          1.16100000	        -28.39736014	        268.57409075	        -36.27546620	         -0.17574194	          0.00000000	          0.02055946	          0.00000000	         -0.00000000	         -0.00000000	          0.00000000	          0.00000000	          0.00000000	          0.00000000	          0.66882381	          0.00000000	          0.00000000	         -0.00000000	          0.00000000	
          1.16200000	        -30.40818224	        281.96005065	        -37.94744363	         -0.18187836	          0.00000000	          0.02129663	          0.00000000	         -0.00000000	         -0.00000000	          0.00000000	          0.00000000	          0.00000000	          0.00000000	          0.69691159	          0.00000000	          0.00000000	         -0.00000000	          0.00000000	
          1.16300000	        -32.48164182	        295.43362374	        -39.61795801	         -0.18789655	          0.00000000	          0.02202092	          0.00000000	         -0.00000000	         -0.00000000	          0.00000000	          0.00000000	          0.00000000	          0.00000000	          0.72475213	          0.00000000	          0.00000000	         -0.00000000	          0.00000000	
          1.16400000	        -34.61568525	        308.95310810	        -41.27999213	         -0.19378242	          0.00000000	          0.02273039	          0.00000000	         -0.00000000	          0.00000000	          0.00000000	          0.00000000	          0.00000000	          0.00000000	          0.75222020	          0.00000000	          0.00000000	         -0.00000000	          0.00000000	
          1.16500000	        -36.80801483	        322.47567603	        -42.92599457	         -0.19952355	          0.00000000	          0.02342321	          0.00000000	          0.00000000	          0.00000000	          0.00000000	          0.00000000	          0.00000000	          0.00000000	          0.77918715	          0.00000000	          0.00000000	         -0.00000000	          0.00000000	
          1.16600000	        -39.05609166	        335.95836048	        -44.54792759	         -0.20510912	          0.00000000	          0.02409770	          0.00000000	          0.00000000	          0.00000000	          0.00000000	          0.00000000	          0.00000000	          0.00000000	          0.80552345	          0.00000000	          0.00000000	         -0.00000000	          0.00000000	
          1.16700000	        -41.35713060	        349.35912805	        -46.13734425	         -0.21052979	          0.00000000	          0.02475229	          0.00000000	          0.00000000	          0.00000000	          0.00000000	          0.00000000	          0.00000000	          0.00000000	          0.83110154	          0.00000000	          0.00000000	         -0.00000000	          0.00000000	
          1.16800000	        -43.70808732	        362.63792114	        -47.68549427	         -0.21577765	          0.00000000	          0.02538557	          0.00000000	          0.00000000	          0.00000000	          0.00000000	          0.00000000	          0.00000000	          0.00000000	          0.85579860	          0.00000000	          0.00000000	         -0.00000000	          0.00000000	
          1.16900000	        -46.10564003	        375.75755350	        -49.18345356	         -0.22084611	          0.00000000	          0.02599621	          0.00000000	          0.00000000	          0.00000000	          0.00000000	          0.00000000	          0.00000000	          0.00000000	          0.87949878	          0.00000000	          0.00000000	         -0.00000000	          0.00000000	
          1.17000000	        -48.54617054	        388.68437309	        -50.62226855	         -0.22572979	          0.00000000	          0.02658303	          0.00000000	          0.00000000	          0.00000000	          0.00000000	          0.00000000	          0.00000000	          0.00000000	          0.90209469	          0.00000000	          0.00000000	         -0.00000000	          0.00000000	
          1.17100000	        -51.02574927	        401.38865193	        -51.99310491	         -0.23042450	          0.00000000	          0.02714494	         -0.00000000	          0.00000000	          0.00000000	          0.00000000	          0.00000000	          0.00000000	          0.00000000	          0.92348771	          0.00000000	          0.00000000	         -0.00000000	          0.00000000	
          1.17200000	        -53.54012755	        413.84470962	        -53.28739079	         -0.23492709	          0.00000000	          0.02768098	         -0.00000000	          0.00000000	          0.00000000	          0.00000000	          0.00000000	          0.00000000	          0.00000000	          0.94358749	          0.00000000	          0.00000000	         -0.00000000	          0.00000000	
          1.17300000	        -56.08473903	        426.03081269	        -54.49694640	         -0.23923543	          0.00000000	          0.02819027	         -0.00000000	          0.00000000	          0.00000000	          0.00000000	          0.00000000	          0.00000000	          0.00000000	          0.96231064	          0.00000000	          0.00000000	         -0.00000000	          0.00000000	
          1.17400000	        -58.65471010	        437.92891266	        -55.61409520	         -0.24334828	          0.00000000	          0.02867208	         -0.00000000	          0.00000000	          0.00000000	          0.00000000	          0.00000000	          0.00000000	          0.00000000	          0.97957917	          0.00000000	          0.00000000	         -0.00000000	          0.00000000	
          1.17500000	        -61.24487850	        449.52429069	        -56.63175443	         -0.24726525	          0.00000000	          0.02912576	         -0.00000000	          0.00000000	          0.00000000	          0.00000000	          0.00000000	          0.00000000	          0.00000000	          0.99531889	          0.00000000	          0.00000000	         -0.00000000	          0.00000000	
          1.17600000	        -63.84981898	        460.80517035	        -57.54350555	         -0.25098670	          0.00000000	          0.02955077	         -0.00000000	          0.00000000	          0.00000000	          0.00000000	          0.00000000	          0.00000000	          0.00000000	          1.00945828	          0.00000000	          0.00000000	         -0.00000000	          0.00000000	
          1.17700000	        -66.46387544	        471.76234651	        -58.34364654	         -0.25451372	          0.00000000	          0.02994671	         -0.00000000	          0.00000000	          0.00000000	          0.00000000	          0.00000000	          0.00000000	          0.00000000	          1.02192763	          0.00000000	          0.00000000	          0.00000000	          0.00000000	
          1.17800000	        -69.08119929	        482.38886095	        -59.02722833	         -0.25784798	          0.00000000	          0.03031323	         -0.00000000	          0.00000000	          0.00000000	          0.00000000	          0.00000000	          0.00000000	          0.00000000	          1.03265884	          0.00000000	          0.00000000	          0.00000000	          0.00000000	
          1.17900000	        -71.69579428	        492.67973989	        -59.59007756	         -0.26099177	          0.00000000	          0.03065012	         -0.00000000	          0.00000000	          0.00000000	          0.00000000	          0.00000000	          0.00000000	          0.00000000	          1.04158556	          0.00000000	          0.00000000	          0.00000000	          0.00000000	
